<?xml version="1.0" encoding="utf-8"?>
<!-- Generator: Adobe Illustrator 27.9.1, SVG Export Plug-In . SVG Version: 6.00 Build 0)  -->
<svg version="1.1" id="Layer_1" xmlns="http://www.w3.org/2000/svg" xmlns:xlink="http://www.w3.org/1999/xlink" x="0px" y="0px"
	 viewBox="0 0 773.1 592.1" style="enable-background:new 0 0 773.1 592.1;" xml:space="preserve">
<style type="text/css">
	.st0{fill:#EDEFEF;}
	.st1{fill:#C4C6C6;}
	.st2{fill:#F7B806;}
	.st3{fill:none;stroke:#FFFFFF;stroke-width:5;stroke-linecap:round;stroke-miterlimit:10;stroke-dasharray:10,30;}
	.st4{fill:#09A7CC;}
	.st5{fill:#057BC4;}
	.st6{fill:#04B5B0;}
	.st7{fill:#9CC605;}
	.st8{fill:#DB0529;}
	.st9{fill:#FFFFFF;}
	.st10{fill:#E5E3E3;stroke:#000000;}
	.st11{font-family:'ArialMT';}
	.st12{font-size:12px;}
	.st13{fill:none;stroke:#000000;stroke-miterlimit:10;stroke-dasharray:3,3;}
	.st14{fill:#E6E6E6;stroke:#000000;}
	.st15{font-size:24px;}
</style>
<g id="SDLC">
	<g>
		<circle class="st0" cx="387.7" cy="306" r="88.8"/>
		<circle class="st1" cx="387.7" cy="306" r="82.1"/>
	</g>
	<g>
		<g>
			<path class="st2" d="M233.1,379.6c-1.1-2.3-2.2-4.6-3.1-6.9c-4.4-10.3-7.7-21.2-10-32.2c-2.3-11.3-3.5-22.9-3.5-34.5
				s1.2-23.2,3.5-34.5c2.3-11,5.6-21.8,10-32.2c1.3-3.1,2.7-6.2,4.2-9.2l1.9-3.8H279l19.2,33.2l-1.5,3.2c-0.6,1.3-1.3,2.7-1.8,4
				c-5.2,12.4-7.9,25.6-7.9,39.2c0,13.2,2.5,26.1,7.5,38.1l3.8,9.4h-37.7l-21.8,37.7L233.1,379.6z"/>
			<path class="st3" d="M288,346.8c-5.3-12.9-8-26.6-8-40.7c0-14.5,2.8-28.6,8.4-41.9c0.6-1.5,1.3-2.9,1.9-4.3L275,233.2h-34.7
				c-1.4,2.9-2.8,5.9-4.1,8.9c-4.2,9.9-7.4,20.3-9.6,30.9c-2.2,10.8-3.3,22-3.3,33.1s1.1,22.3,3.3,33.1c2.2,10.6,5.4,21,9.6,30.9
				c0.9,2.2,1.9,4.4,3,6.6l17.3-29.9L288,346.8z"/>
		</g>
		<g>
			<path class="st4" d="M477.2,352.5l1.5-3.2c0.6-1.4,1.3-2.7,1.8-4c5.2-12.4,7.9-25.6,7.9-39.2c0-13.2-2.5-26.1-7.5-38.1l-3.8-9.4
				h37.7l21.8-37.7l5.6,11.7c1.1,2.3,2.2,4.6,3.1,6.9c4.4,10.3,7.7,21.2,10,32.2c2.3,11.3,3.5,22.9,3.5,34.5s-1.2,23.2-3.5,34.5
				c-2.3,11-5.6,21.8-10,32.2c-1.3,3.1-2.7,6.2-4.2,9.2l-1.9,3.8h-42.9L477.2,352.5z"/>
			<path class="st3" d="M534.6,378.9c1.4-2.9,2.8-5.9,4.1-8.9c4.2-9.9,7.4-20.3,9.6-30.9c2.2-10.8,3.3-22,3.3-33.1
				s-1.1-22.3-3.3-33.1c-2.2-10.6-5.4-21-9.6-30.9c-0.9-2.2-1.9-4.4-3-6.6l-17.3,29.9h-31.5c5.3,12.9,8,26.6,8,40.7
				c0,14.5-2.8,28.6-8.4,41.9c-0.6,1.5-1.3,2.9-1.9,4.3l15.4,26.7H534.6z"/>
		</g>
		<g>
			<path class="st5" d="M472.7,251.7l-2-2.9c-3.4-5-7.4-9.7-11.7-14c-9.3-9.3-20.1-16.5-32.1-21.6c-8.2-3.5-16.8-5.8-25.6-7
				l-10.1-1.4l18.9-32.7l-21.8-37.7l12.9,1c7,0.6,14,1.5,20.9,2.9c11,2.3,21.8,5.6,32.2,10c10.2,4.3,19.9,9.6,29.1,15.8
				c9.1,6.1,17.6,13.1,25.3,20.9c7.7,7.7,14.8,16.3,20.9,25.3c0.1,0.2,0.2,0.3,0.3,0.5l0.2,0.3l2.4,3.5L511,251.7H472.7z"/>
			<path class="st3" d="M418,172.1l-15.8,27.3c9.4,1.3,18.6,3.8,27.3,7.5c12.8,5.4,24.3,13.2,34.2,23.1c4.6,4.6,8.8,9.7,12.5,15H507
				l17.4-30.1c-0.2-0.2-0.3-0.5-0.5-0.7c-5.9-8.7-12.6-16.9-20.1-24.3c-7.4-7.4-15.6-14.2-24.3-20.1c-8.8-5.9-18.2-11-27.9-15.2
				c-9.9-4.2-20.3-7.4-30.9-9.6c-6.6-1.3-13.3-2.3-20-2.8L418,172.1z"/>
		</g>
		<g>
			<path class="st6" d="M373,440l19.2-33.2l3.6-0.3c10.8-0.8,21.2-3.4,31.1-7.6c12-5.1,22.8-12.3,32.1-21.6c3-3,5.8-6.2,8.4-9.5
				l6.2-8l18.9,32.7h43.6l-7.4,10.7c-5.9,8.5-12.6,16.6-19.9,23.9c-7.7,7.7-16.3,14.8-25.3,20.9c-9.2,6.2-18.9,11.5-29.1,15.8
				c-10.3,4.4-21.2,7.7-32.2,10c-7.7,1.6-15.6,2.6-23.5,3.1l-4.2,0.3L373,440z"/>
			<path class="st3" d="M488.5,399.3L472.7,372c-2.8,3.6-5.8,7-9,10.2c-9.9,9.9-21.4,17.7-34.2,23.1c-10.6,4.5-21.8,7.2-33.3,8.1
				L380.9,440l17.4,30.1c7.6-0.5,15.1-1.5,22.5-3c10.6-2.2,21-5.4,30.9-9.6c9.7-4.1,19.1-9.2,27.9-15.2c8.7-5.9,16.9-12.6,24.3-20.1
				c7.1-7.1,13.5-14.8,19.1-23L488.5,399.3z"/>
		</g>
		<g>
			<path class="st7" d="M374.1,476.7c-7-0.6-14-1.5-20.9-2.9c-11-2.3-21.8-5.6-32.2-10c-10.2-4.3-19.9-9.6-29.1-15.8
				c-9.1-6.1-17.6-13.1-25.3-20.9c-7.7-7.7-14.8-16.3-20.9-25.3c-0.1-0.2-0.2-0.3-0.3-0.5l-0.2-0.3l-2.4-3.5l21.4-37.1h38.3l2,2.9
				c3.4,5,7.4,9.7,11.7,14c9.3,9.3,20.1,16.5,32.1,21.6c8.2,3.5,16.8,5.8,25.6,7l10.1,1.4L365.2,440l21.8,37.7L374.1,476.7z"/>
			<path class="st3" d="M357.3,440l15.8-27.3c-9.4-1.3-18.6-3.8-27.3-7.5c-12.8-5.4-24.3-13.2-34.2-23.1c-4.6-4.6-8.8-9.7-12.5-15
				h-30.8l-17.4,30.1c0.2,0.2,0.3,0.5,0.5,0.7c5.9,8.7,12.6,16.9,20.1,24.3c7.4,7.4,15.6,14.2,24.3,20.1c8.8,5.9,18.2,11,27.9,15.2
				c9.9,4.2,20.3,7.4,30.9,9.6c6.6,1.3,13.3,2.3,20,2.8L357.3,440z"/>
		</g>
		<g>
			<path class="st8" d="M282.9,219.6h-43.6l7.4-10.7c5.9-8.5,12.6-16.6,19.9-23.9c7.7-7.7,16.3-14.8,25.3-20.9
				c9.2-6.2,18.9-11.5,29.1-15.8c10.3-4.4,21.2-7.7,32.2-10c7.7-1.6,15.6-2.6,23.5-3.1l4.2-0.3l21.4,37.1l-19.2,33.2l-3.6,0.3
				c-10.8,0.8-21.2,3.4-31.1,7.6c-12,5.1-22.8,12.3-32.1,21.6c-3,3-5.8,6.2-8.4,9.5l-6.2,8L282.9,219.6z"/>
			<path class="st3" d="M286.8,212.8l15.8,27.3c2.8-3.6,5.8-7,9-10.2c9.9-9.9,21.4-17.7,34.2-23.1c10.6-4.5,21.8-7.2,33.3-8.1
				l15.4-26.7l-17.4-30c-7.6,0.5-15.1,1.5-22.5,3c-10.6,2.2-21,5.4-30.9,9.6c-9.7,4.1-19.1,9.2-27.9,15.2
				c-8.7,5.9-16.9,12.6-24.3,20.1c-7.1,7.1-13.5,14.8-19.1,23L286.8,212.8z"/>
		</g>
	</g>
	<g>
		<g>
			<g>
				<path class="st9" d="M459.8,189.4v-11.6c-0.4,0.2-1.2,0.4-1.5,0.4V177c0.8-0.2,1.6-0.7,1.9-1.1h1.1v13.4h-1.5V189.4z"/>
			</g>
			<g>
				<path class="st9" d="M446.4,195h1.4c1.1,0,1.7,0.6,1.7,1.8v0.5c0,1.1-0.3,2-1.7,2h-0.5v3.3h-0.8V195H446.4z M447.2,198.6h0.5
					c0.9,0,1-0.5,1-1.3v-0.4c0-0.6-0.1-1.2-0.9-1.2h-0.5v2.9H447.2z"/>
				<path class="st9" d="M450.5,195h0.8v6.9h1.9l-0.1,0.7h-2.6L450.5,195L450.5,195z"/>
				<path class="st9" d="M455,200.2l-0.4,2.4h-0.8l1.2-7.6h1.1l1.3,7.6h-0.8l-0.4-2.4H455z M456.2,199.4c-0.3-1.7-0.5-3-0.5-3.7l0,0
					c0,0.6-0.3,2.3-0.5,3.7H456.2z"/>
				<path class="st9" d="M458.5,202.6V195h1c0.4,1.4,1.5,5.4,1.6,6l0,0c0-1-0.1-2.1-0.1-3.3V195h0.8v7.6h-0.9
					c-0.4-1.4-1.5-5.6-1.6-6.2l0,0c0.1,0.9,0.1,2.1,0.1,3.5v2.7H458.5z"/>
				<path class="st9" d="M464,195v7.6h-0.8V195H464z"/>
				<path class="st9" d="M465.4,202.6V195h1c0.4,1.4,1.5,5.4,1.6,6l0,0c0-1-0.1-2.1-0.1-3.3V195h0.8v7.6h-0.9
					c-0.4-1.4-1.5-5.6-1.6-6.2l0,0c0.1,0.9,0.1,2.1,0.1,3.5v2.7H465.4z"/>
				<path class="st9" d="M473.1,202.6h-0.6c0-0.1,0-0.5,0-0.7c-0.2,0.6-0.6,0.8-1.1,0.8c-1,0-1.4-0.8-1.4-2v-3.8c0-1.2,0.5-2,1.6-2
					c1.3,0,1.6,0.9,1.6,1.9v0.2h-0.8v-0.2c0-0.5-0.1-1.1-0.8-1.1c-0.5,0-0.8,0.3-0.8,1.2v3.9c0,0.7,0.2,1.2,0.7,1.2
					c0.7,0,0.8-0.6,0.8-1.6v-1.2h-0.8v-0.7h1.7v4.1H473.1z"/>
			</g>
		</g>
		<g>
			<g>
				<path class="st9" d="M518.3,308.8v-0.2c0-2.1,1-3.7,2.5-6c1.1-1.6,1.4-2.2,1.4-3.7c0-1.6-0.2-2.3-1.2-2.3
					c-0.9,0-1.2,0.7-1.2,1.9v0.6h-1.4v-0.7c0-1.5,0.4-3.1,2.7-3.1c2.1,0,2.6,1.5,2.6,3.5c0,2.1-0.6,2.9-1.6,4.4
					c-1.2,1.8-2,3.2-2.2,4.3h4.1l-0.2,1.3L518.3,308.8L518.3,308.8z"/>
			</g>
			<g>
				<path class="st9" d="M507.7,319.7l-0.4,2.4h-0.8l1.2-7.6h1.1l1.3,7.6h-0.8l-0.4-2.4H507.7z M508.9,318.9c-0.3-1.7-0.5-3-0.5-3.7
					l0,0c0,0.6-0.3,2.3-0.5,3.7H508.9z"/>
				<path class="st9" d="M511.2,322.1v-7.6h1c0.4,1.4,1.5,5.4,1.6,6l0,0c0-1-0.1-2.1-0.1-3.3v-2.7h0.8v7.6h-0.9
					c-0.4-1.4-1.5-5.6-1.6-6.2l0,0c0.1,0.9,0.1,2.1,0.1,3.5v2.7H511.2z"/>
				<path class="st9" d="M516.6,319.7l-0.4,2.4h-0.8l1.2-7.6h1.1l1.3,7.6h-0.8l-0.4-2.4H516.6z M517.7,318.9c-0.3-1.7-0.5-3-0.5-3.7
					l0,0c0,0.6-0.3,2.3-0.5,3.7H517.7z"/>
				<path class="st9" d="M520,314.5h0.8v6.9h1.9l-0.1,0.7H520V314.5z"/>
				<path class="st9" d="M523.7,322.1v-2.8c0-0.1,0-0.1,0-0.2l-1.4-4.5h0.9c0.4,1.4,0.8,3,1,3.7l0,0c0.1-0.7,0.6-2.4,1-3.7h0.9
					l-1.4,4.6c0,0.1,0,0.1,0,0.2v2.8h-1V322.1z"/>
				<path class="st9" d="M527.3,319.9v0.4c0,0.7,0.2,1.1,0.8,1.1c0.5,0,0.8-0.4,0.8-1.2c0-0.9-0.2-1.2-1-1.9c-0.8-0.6-1.2-1-1.2-2.1
					c0-1,0.3-1.9,1.5-1.9c1.1,0,1.4,0.8,1.4,1.7v0.4h-0.8v-0.3c0-0.6-0.1-1-0.6-1s-0.7,0.5-0.7,1.1c0,0.7,0.1,1,0.8,1.5
					c1.1,0.8,1.4,1.2,1.4,2.5c0,1.1-0.3,2-1.6,2c-1.2,0-1.6-0.8-1.6-1.8V320h0.8V319.9z"/>
				<path class="st9" d="M531.6,314.5v7.6h-0.8v-7.6H531.6z"/>
				<path class="st9" d="M533.4,319.9v0.4c0,0.7,0.2,1.1,0.8,1.1c0.5,0,0.8-0.4,0.8-1.2c0-0.9-0.2-1.2-1-1.9c-0.8-0.6-1.2-1-1.2-2.1
					c0-1,0.3-1.9,1.5-1.9c1.1,0,1.4,0.8,1.4,1.7v0.4h-0.8v-0.3c0-0.6-0.1-1-0.6-1s-0.7,0.5-0.7,1.1c0,0.7,0.1,1,0.8,1.5
					c1.1,0.8,1.4,1.2,1.4,2.5c0,1.1-0.3,2-1.6,2c-1.2,0-1.6-0.8-1.6-1.8V320h0.8V319.9z"/>
			</g>
		</g>
		<g>
			<g>
				<path class="st9" d="M254,275.5h-3.3c-0.1,1.1-0.2,3-0.3,4c0.3-0.4,0.9-0.8,1.7-0.8c1.8,0,2.4,1.3,2.4,3.5v1.6
					c0,2.2-0.5,3.9-2.9,3.9c-2.1,0-2.8-1.5-2.8-3.2v-0.2h1.5v0.4c0,0.9,0.3,1.8,1.3,1.8c1.2,0,1.4-1,1.4-2.4v-1.7
					c0-1.5-0.2-2.3-1.3-2.3c-0.9,0-1.2,0.5-1.4,1.5l-1.3-0.1c0.2-1.8,0.5-5.7,0.5-7.1h4.7L254,275.5z"/>
			</g>
			<g>
				<path class="st9" d="M236.6,293.9h-1.2v-0.7h3.3v0.7h-1.2v6.8h-0.8v-6.8H236.6z"/>
				<path class="st9" d="M241.9,297.1h-1.7v2.9h1.9l-0.1,0.7h-2.6v-7.6h2.6v0.7h-1.8v2.4h1.7L241.9,297.1L241.9,297.1z"/>
				<path class="st9" d="M243.7,298.6v0.4c0,0.7,0.2,1.1,0.8,1.1c0.5,0,0.8-0.4,0.8-1.2c0-0.9-0.2-1.2-1-1.9c-0.8-0.6-1.2-1-1.2-2.1
					c0-1,0.3-1.9,1.5-1.9c1.1,0,1.4,0.8,1.4,1.7v0.4h-0.8v-0.3c0-0.6-0.1-1-0.6-1s-0.7,0.5-0.7,1.1c0,0.7,0.1,1,0.8,1.5
					c1.1,0.8,1.4,1.2,1.4,2.5c0,1.1-0.3,2-1.6,2c-1.2,0-1.6-0.8-1.6-1.8v-0.4h0.8V298.6z"/>
				<path class="st9" d="M247.8,293.9h-1.2v-0.7h3.3v0.7h-1.2v6.8h-0.8v-6.8H247.8z"/>
				<path class="st9" d="M251.5,293.2v7.6h-0.8v-7.6H251.5z"/>
				<path class="st9" d="M252.9,300.8v-7.6h1c0.4,1.4,1.5,5.4,1.6,6l0,0c0-1-0.1-2.1-0.1-3.3v-2.7h0.8v7.6h-0.9
					c-0.4-1.4-1.5-5.6-1.6-6.2l0,0c0.1,0.9,0.1,2.1,0.1,3.5v2.7H252.9z"/>
				<path class="st9" d="M260.6,300.8H260c0-0.1,0-0.5,0-0.7c-0.2,0.6-0.6,0.8-1.1,0.8c-1,0-1.4-0.8-1.4-2v-3.8c0-1.2,0.5-2,1.6-2
					c1.3,0,1.6,0.9,1.6,1.9v0.2h-0.8V295c0-0.5-0.1-1.1-0.8-1.1c-0.5,0-0.8,0.3-0.8,1.2v3.9c0,0.7,0.2,1.2,0.7,1.2
					c0.7,0,0.8-0.6,0.8-1.6v-1.2H259v-0.7h1.7v4.1H260.6z"/>
				<path class="st9" d="M267.9,296.2l-1.1,3c-0.4,1.1-0.9,1.7-1.8,1.7c-1.1,0-1.5-0.9-1.5-2c0-1.2,0.4-1.7,1.4-2.4
					c0.7-0.6,0.9-0.9,0.9-1.7c0-0.5-0.1-0.9-0.5-0.9s-0.5,0.4-0.5,0.9c0,0.7,0,1,0.4,1.6l2.6,4.4h-0.9l-2.3-3.9
					c-0.5-0.8-0.6-1.2-0.6-2.1c0-1,0.4-1.7,1.3-1.7s1.3,0.6,1.3,1.6c0,1.1-0.3,1.5-1.3,2.3c-0.7,0.6-0.9,1-0.9,1.8s0.3,1.3,0.8,1.3
					s0.7-0.3,1-1.1l1-2.8L267.9,296.2L267.9,296.2z"/>
			</g>
			<g>
				<path class="st9" d="M232.4,306.3v7.6h-0.8v-7.6H232.4z"/>
				<path class="st9" d="M233.8,313.9v-7.6h1c0.4,1.4,1.5,5.4,1.6,6l0,0c0-1-0.1-2.1-0.1-3.3v-2.7h0.8v7.6h-0.9
					c-0.4-1.4-1.5-5.6-1.6-6.2l0,0c0.1,0.9,0.1,2.1,0.1,3.5v2.7H233.8z"/>
				<path class="st9" d="M239.2,307.1H238v-0.7h3.3v0.7H240v6.8h-0.8V307.1z"/>
				<path class="st9" d="M244.5,310.2h-1.7v2.9h1.9l-0.1,0.7H242v-7.6h2.6v0.7h-1.8v2.4h1.7V310.2z"/>
				<path class="st9" d="M248.8,313.9h-0.6c0-0.1,0-0.5,0-0.7c-0.2,0.6-0.6,0.8-1.1,0.8c-1,0-1.4-0.8-1.4-2v-3.8c0-1.2,0.5-2,1.6-2
					c1.3,0,1.6,0.9,1.6,1.9v0.2H248v-0.2c0-0.5-0.1-1.1-0.8-1.1c-0.5,0-0.8,0.3-0.8,1.2v3.9c0,0.7,0.2,1.2,0.7,1.2
					c0.7,0,0.8-0.6,0.8-1.6v-1.2h-0.8v-0.7h1.7L248.8,313.9L248.8,313.9z"/>
				<path class="st9" d="M250.9,310.4v3.5h-0.8v-7.6h1.3c1.1,0,1.7,0.5,1.7,1.7v0.3c0,1-0.4,1.5-0.8,1.6c0.5,0.2,0.7,0.5,0.7,1.6
					c0,0.6,0,1.9,0.1,2.3h-0.8c-0.1-0.5-0.1-1.7-0.1-2.3c0-1-0.1-1.3-0.9-1.3h-0.4V310.4z M250.9,309.7h0.5c0.7,0,0.9-0.4,0.9-1.2
					v-0.3c0-0.7-0.2-1.1-0.9-1.1h-0.5V309.7z"/>
				<path class="st9" d="M255.2,311.5l-0.4,2.4H254l1.2-7.6h1.1l1.3,7.6h-0.8l-0.4-2.4H255.2z M256.4,310.7c-0.3-1.7-0.5-3-0.5-3.7
					l0,0c0,0.6-0.3,2.3-0.5,3.7H256.4z"/>
				<path class="st9" d="M258.9,307.1h-1.2v-0.7h3.3v0.7h-1.2v6.8H259L258.9,307.1L258.9,307.1z"/>
				<path class="st9" d="M262.6,306.3v7.6h-0.8v-7.6H262.6z"/>
				<path class="st9" d="M267.1,308.2v3.8c0,1.3-0.5,2-1.7,2s-1.6-0.7-1.6-2v-3.8c0-1.3,0.6-2,1.7-2S267.1,307,267.1,308.2z
					 M264.6,308.1v3.9c0,0.9,0.3,1.2,0.8,1.2s0.8-0.3,0.8-1.2v-3.9c0-0.8-0.3-1.2-0.8-1.2C264.9,307,264.6,307.3,264.6,308.1z"/>
				<path class="st9" d="M268.3,313.9v-7.6h1c0.4,1.4,1.5,5.4,1.6,6l0,0c0-1-0.1-2.1-0.1-3.3v-2.7h0.8v7.6h-0.9
					c-0.4-1.4-1.5-5.6-1.6-6.2l0,0c0.1,0.9,0.1,2.1,0.1,3.5v2.7H268.3z"/>
			</g>
		</g>
		<g>
			<g>
				<path class="st9" d="M331.5,172.3v-0.1c0-0.6-0.1-1.7-1.2-1.7s-1.4,0.8-1.4,2.5v2c0.3-0.5,0.8-1,1.9-1c1.7,0,2.3,1.3,2.3,3v2.5
					c0,2-0.6,3.5-2.8,3.5c-2.2,0-2.8-1.6-2.8-3.5V173c0-2.3,0.6-3.8,2.8-3.8c2.2,0,2.6,1.6,2.6,2.9v0.1h-1.4V172.3z M331.7,179.6
					v-2.4c0-1.1-0.3-1.9-1.3-1.9c-1.1,0-1.4,1-1.4,2.3v2.1c0,1.1,0.3,2.1,1.3,2.1C331.2,181.7,331.7,181,331.7,179.6z"/>
			</g>
			<g>
				<path class="st9" d="M311.9,192.8c0-1.4,0-2.9,0-3.7l0,0c-0.2,1.3-0.8,4.6-1.2,6.9h-0.8c-0.3-2-0.9-5.5-1.1-6.9l0,0
					c0,0.9,0.1,2.6,0.1,3.9v3h-0.8v-7.6h1.2c0.4,2.2,0.9,5,1,6l0,0c0.1-0.9,0.7-3.9,1.1-6h1.2v7.6h-0.8L311.9,192.8L311.9,192.8z"/>
				<path class="st9" d="M314.7,193.6l-0.4,2.4h-0.8l1.2-7.6h1.1l1.3,7.6h-0.8l-0.4-2.4H314.7z M315.9,192.8c-0.3-1.7-0.5-3-0.5-3.7
					l0,0c0,0.6-0.3,2.3-0.5,3.7H315.9z"/>
				<path class="st9" d="M319,188.4v7.6h-0.8v-7.6H319z"/>
				<path class="st9" d="M320.4,196v-7.6h1c0.4,1.4,1.5,5.4,1.6,6l0,0c0-1-0.1-2.1-0.1-3.3v-2.7h0.8v7.6h-0.9
					c-0.4-1.4-1.5-5.6-1.6-6.2l0,0c0.1,0.9,0.1,2.1,0.1,3.5v2.7H320.4z"/>
				<path class="st9" d="M325.7,189.1h-1.2v-0.7h3.3v0.7h-1.2v6.8h-0.8L325.7,189.1L325.7,189.1z"/>
				<path class="st9" d="M331.1,192.3h-1.7v2.9h1.9l-0.1,0.7h-2.6v-7.6h2.6v0.7h-1.8v2.4h1.7V192.3z"/>
				<path class="st9" d="M332.3,196v-7.6h1c0.4,1.4,1.5,5.4,1.6,6l0,0c0-1-0.1-2.1-0.1-3.3v-2.7h0.8v7.6h-0.9
					c-0.4-1.4-1.5-5.6-1.6-6.2l0,0c0.1,0.9,0.1,2.1,0.1,3.5v2.7H332.3z"/>
				<path class="st9" d="M337.7,193.6l-0.4,2.4h-0.8l1.2-7.6h1.1l1.3,7.6h-0.8l-0.4-2.4H337.7z M338.9,192.8c-0.3-1.7-0.5-3-0.5-3.7
					l0,0c0,0.6-0.3,2.3-0.5,3.7H338.9z"/>
				<path class="st9" d="M341.1,196v-7.6h1c0.4,1.4,1.5,5.4,1.6,6l0,0c0-1-0.1-2.1-0.1-3.3v-2.7h0.8v7.6h-0.9
					c-0.4-1.4-1.5-5.6-1.6-6.2l0,0c0.1,0.9,0.1,2.1,0.1,3.5v2.7H341.1z"/>
				<path class="st9" d="M348.7,193.8v0.3c0,1-0.2,2-1.5,2s-1.5-0.9-1.5-2v-3.9c0-1.2,0.5-1.9,1.5-1.9c1.3,0,1.5,0.9,1.5,1.9v0.3
					h-0.8v-0.4c0-0.6-0.1-1.1-0.7-1.1s-0.7,0.4-0.7,1.1v3.9c0,0.8,0.2,1.3,0.7,1.3c0.6,0,0.7-0.5,0.7-1.2v-0.3L348.7,193.8
					L348.7,193.8z"/>
				<path class="st9" d="M352.3,192.3h-1.7v2.9h1.9l-0.1,0.7h-2.6v-7.6h2.6v0.7h-1.8v2.4h1.7V192.3z"/>
			</g>
		</g>
		<g>
			<g>
				<path class="st9" d="M444.9,417.9v-0.3c0-1.2,0.3-3,2.6-3c1.9,0,2.5,1.2,2.5,3v0.6c0,1.5-0.5,2.2-1.2,2.5l0,0
					c1,0.3,1.6,1.1,1.6,2.7v1.1c0,2.1-0.6,3.6-2.9,3.6c-2,0-2.8-1.2-2.8-3v-0.4h1.4v0.4c0,1,0.4,1.8,1.4,1.8c1.1,0,1.4-0.7,1.4-2.2
					v-1.3c0-1.6-0.6-2.1-1.8-2.1h-0.6V420h0.6c1,0,1.5-0.4,1.5-1.8v-0.7c0-1-0.2-1.8-1.2-1.8s-1.2,0.8-1.2,1.7v0.4L444.9,417.9
					L444.9,417.9z"/>
			</g>
			<g>
				<path class="st9" d="M436.5,433.7h1.4c1.6,0,1.8,1,1.8,2.2v3c0,1.2-0.2,2.4-1.9,2.4h-1.3V433.7z M437.3,440.6h0.5
					c0.9,0,1.1-0.5,1.1-1.5v-3.3c0-0.9-0.2-1.4-1.1-1.4h-0.5V440.6z"/>
				<path class="st9" d="M443.5,437.6h-1.7v2.9h1.9l-0.1,0.7H441v-7.6h2.6v0.7h-1.8v2.4h1.7L443.5,437.6L443.5,437.6z"/>
				<path class="st9" d="M445.3,439.2v0.4c0,0.7,0.2,1.1,0.8,1.1c0.5,0,0.8-0.4,0.8-1.2c0-0.9-0.2-1.2-1-1.9c-0.8-0.6-1.2-1-1.2-2.1
					c0-1,0.3-1.9,1.5-1.9c1.1,0,1.4,0.8,1.4,1.7v0.4h-0.8v-0.3c0-0.6-0.1-1-0.6-1s-0.7,0.5-0.7,1.1c0,0.7,0.1,1,0.8,1.5
					c1.1,0.8,1.4,1.2,1.4,2.5c0,1.1-0.3,2-1.6,2c-1.2,0-1.6-0.8-1.6-1.8v-0.4h0.8V439.2z"/>
				<path class="st9" d="M449.5,433.7v7.6h-0.8v-7.6H449.5z"/>
				<path class="st9" d="M454,441.3h-0.6c0-0.1,0-0.5,0-0.7c-0.2,0.6-0.6,0.8-1.1,0.8c-1,0-1.4-0.8-1.4-2v-3.8c0-1.2,0.5-2,1.6-2
					c1.3,0,1.6,0.9,1.6,1.9v0.2h-0.8v-0.2c0-0.5-0.1-1.1-0.8-1.1c-0.5,0-0.8,0.3-0.8,1.2v3.9c0,0.7,0.2,1.2,0.7,1.2
					c0.7,0,0.8-0.6,0.8-1.6v-1.2h-0.8v-0.7h1.7v4.1H454z"/>
				<path class="st9" d="M455.3,441.3v-7.6h1c0.4,1.4,1.5,5.4,1.6,6l0,0c0-1-0.1-2.1-0.1-3.3v-2.7h0.8v7.6h-0.9
					c-0.4-1.4-1.5-5.6-1.6-6.2l0,0c0.1,0.9,0.1,2.1,0.1,3.5v2.7H455.3z"/>
			</g>
		</g>
		<g>
			<g>
				<path class="st9" d="M314.8,414.6V411H311v-1.1l3.2-8.6h1.9v8.5h1L317,411h-0.9v3.6H314.8z M314.8,406.6c0-1.3,0-2.5,0.1-3.8
					l0,0c-0.7,2.3-1.6,4.7-2.4,7h2.3V406.6z"/>
			</g>
			<g>
				<path class="st9" d="M287.9,420.3v7.6h-0.8v-7.6H287.9z"/>
				<path class="st9" d="M293,424.7c0-1.4,0-2.9,0-3.7l0,0c-0.2,1.3-0.8,4.6-1.2,6.9H291c-0.3-2-0.9-5.5-1.1-6.9l0,0
					c0,0.9,0.1,2.6,0.1,3.9v3h-0.8v-7.6h1.2c0.4,2.2,0.9,5,1,6l0,0c0.1-0.9,0.7-3.9,1.1-6h1.2v7.6H293V424.7z"/>
				<path class="st9" d="M295.2,420.3h1.4c1.1,0,1.7,0.6,1.7,1.8v0.5c0,1.1-0.3,2-1.7,2H296v3.3h-0.8V420.3z M296,423.8h0.5
					c0.9,0,1-0.5,1-1.3v-0.4c0-0.6-0.1-1.2-0.9-1.2H296V423.8z"/>
				<path class="st9" d="M299.4,420.3h0.8v6.9h1.9l-0.1,0.7h-2.6L299.4,420.3L299.4,420.3z"/>
				<path class="st9" d="M305.4,424.2h-1.7v2.9h1.9l-0.1,0.7h-2.6v-7.6h2.6v0.7h-1.8v2.4h1.7V424.2z"/>
				<path class="st9" d="M310.3,424.7c0-1.4,0-2.9,0-3.7l0,0c-0.2,1.3-0.8,4.6-1.2,6.9h-0.8c-0.3-2-0.9-5.5-1.1-6.9l0,0
					c0,0.9,0.1,2.6,0.1,3.9v3h-0.8v-7.6h1.2c0.4,2.2,0.9,5,1,6l0,0c0.1-0.9,0.7-3.9,1.1-6h1.2v7.6h-0.8L310.3,424.7L310.3,424.7z"/>
				<path class="st9" d="M315,424.2h-1.7v2.9h1.9l-0.1,0.7h-2.6v-7.6h2.6v0.7h-1.8v2.4h1.7V424.2z"/>
				<path class="st9" d="M316.1,427.8v-7.6h1c0.4,1.4,1.5,5.4,1.6,6l0,0c0-1-0.1-2.1-0.1-3.3v-2.7h0.8v7.6h-0.9
					c-0.4-1.4-1.5-5.6-1.6-6.2l0,0c0.1,0.9,0.1,2.1,0.1,3.5v2.7H316.1z"/>
				<path class="st9" d="M321.5,421h-1.2v-0.7h3.3v0.7h-1.2v6.8h-0.8L321.5,421L321.5,421z"/>
				<path class="st9" d="M324.7,425.4l-0.4,2.4h-0.8l1.2-7.6h1.1l1.3,7.6h-0.8l-0.4-2.4H324.7z M325.9,424.7c-0.3-1.7-0.5-3-0.5-3.7
					l0,0c0,0.6-0.3,2.3-0.5,3.7H325.9z"/>
				<path class="st9" d="M328.4,421h-1.2v-0.7h3.3v0.7h-1.2v6.8h-0.8L328.4,421L328.4,421z"/>
				<path class="st9" d="M332.1,420.3v7.6h-0.8v-7.6H332.1z"/>
				<path class="st9" d="M336.6,422.1v3.8c0,1.3-0.5,2-1.7,2s-1.6-0.7-1.6-2v-3.8c0-1.3,0.6-2,1.7-2
					C336.1,420.2,336.6,420.9,336.6,422.1z M334.1,422.1v3.9c0,0.9,0.3,1.2,0.8,1.2s0.8-0.3,0.8-1.2v-3.9c0-0.8-0.3-1.2-0.8-1.2
					S334.1,421.3,334.1,422.1z"/>
				<path class="st9" d="M337.9,427.8v-7.6h1c0.4,1.4,1.5,5.4,1.6,6l0,0c0-1-0.1-2.1-0.1-3.3v-2.7h0.8v7.6h-0.9
					c-0.4-1.4-1.5-5.6-1.6-6.2l0,0c0.1,0.9,0.1,2.1,0.1,3.5v2.7H337.9z"/>
			</g>
		</g>
	</g>
</g>
<g id="Planning">
	<path pointer-events="all" class="st10" d="M436.6,0.5h262c5.1,0,9.2,8.8,9.2,19.6v91.4c0,10.8-4.1,19.6-9.2,19.6h-262
		c-5.1,0-9.2-8.8-9.2-19.6V20.1C427.4,9.3,431.5,0.5,436.6,0.5z"/>
	<text transform="matrix(1 0 0 1 436.1707 19.6191)" class="st11 st12">I excel in working with cross-functional teams. My </text>
	<text transform="matrix(1 0 0 1 435.3707 34.0191)" class="st11 st12">ability to understand and integrate diverse </text>
	<text transform="matrix(1 0 0 1 435.3707 48.4191)" class="st11 st12">perspectives from various departments is a </text>
	<text transform="matrix(1 0 0 1 435.3707 62.8191)" class="st11 st12">testament to my strong interpersonal skills and </text>
	<text transform="matrix(1 0 0 1 435.3707 77.2191)" class="st11 st12">adaptability. I effectively bridge gaps between </text>
	<text transform="matrix(1 0 0 1 435.3707 91.6191)" class="st11 st12">technical and non-technical stakeholders, ensuring </text>
	<text transform="matrix(1 0 0 1 435.3707 106.0191)" class="st11 st12">that projects are completed efficiently and </text>
	<text transform="matrix(1 0 0 1 436.3707 120.4191)" class="st11 st12">objectives are met with collective expertise.</text>
	<path pointer-events="stroke" class="st13" d="M567.6,130.4l-80.2,78.3"/>
	<ellipse pointer-events="all" class="st14" cx="484.9" cy="211.8" rx="4.2" ry="4"/>
</g>
<g id="Analysis">
	<path pointer-events="all" class="st10" d="M580.8,159.2h185.4c3.6,0,6.5,16.4,6.5,36.5v170.5c0,20.2-2.9,36.5-6.5,36.5H580.8
		c-3.6,0-6.5-16.4-6.5-36.5V195.7C574.3,175.5,577.2,159.2,580.8,159.2z"/>
	<text transform="matrix(1 0 0 1 584.145 177.2366)" class="st11 st12">In my approach to software </text>
	<text transform="matrix(1 0 0 1 582.545 191.6366)" class="st11 st12">development, I utilize UML </text>
	<text transform="matrix(1 0 0 1 582.145 206.0366)" class="st11 st12">diagrams, particularly use case </text>
	<text transform="matrix(1 0 0 1 582.145 220.4366)" class="st11 st12">diagrams, as a pivotal tool for </text>
	<text transform="matrix(1 0 0 1 582.145 234.8366)" class="st11 st12">analyzing and clarifying </text>
	<text transform="matrix(1 0 0 1 582.145 249.2366)" class="st11 st12">requirements. At the initial stages, </text>
	<text transform="matrix(1 0 0 1 582.145 263.6366)" class="st11 st12">these diagrams help in visualizing </text>
	<text transform="matrix(1 0 0 1 582.145 278.0366)" class="st11 st12">the system&apos;s functionality from the </text>
	<text transform="matrix(1 0 0 1 582.145 292.4366)" class="st11 st12">user&apos;s perspective. I start by </text>
	<text transform="matrix(1 0 0 1 582.145 306.8366)" class="st11 st12">identifying the key actors (users or </text>
	<text transform="matrix(1 0 0 1 582.145 321.2366)" class="st11 st12">external systems) and their </text>
	<text transform="matrix(1 0 0 1 582.145 335.6366)" class="st11 st12">interactions with the system, </text>
	<text transform="matrix(1 0 0 1 582.145 350.0366)" class="st11 st12">represented as use cases. This </text>
	<text transform="matrix(1 0 0 1 582.145 364.4366)" class="st11 st12">process aids in comprehensively </text>
	<text transform="matrix(1 0 0 1 582.545 378.8366)" class="st11 st12">understanding user needs and </text>
	<text transform="matrix(1 0 0 1 584.345 393.2366)" class="st11 st12">system objectives.</text>
	<path pointer-events="stroke" class="st13" d="M572.9,283.6l-48.7-5.2"/>
	<ellipse pointer-events="all" class="st14" cx="520" cy="278.3" rx="4.2" ry="4"/>
</g>
<g id="Design">
	<path pointer-events="all" class="st10" d="M533.7,421H752c4.2,0,7.6,11.5,7.6,25.6V566c0,14.1-3.4,25.6-7.6,25.6H533.7
		c-4.2,0-7.6-11.5-7.6-25.6V446.6C526.1,432.5,529.5,421,533.7,421z"/>
	<text transform="matrix(1 0 0 1 535.5808 438.5779)" class="st11 st12">My favored approach to application </text>
	<text transform="matrix(1 0 0 1 533.9808 452.9779)" class="st11 st12">design involves employing Gherkin syntax </text>
	<text transform="matrix(1 0 0 1 533.9808 467.3779)" class="st11 st12">for documenting requirements. This </text>
	<text transform="matrix(1 0 0 1 533.9808 481.7779)" class="st11 st12">structured, yet straightforward, language </text>
	<text transform="matrix(1 0 0 1 533.9808 496.1779)" class="st11 st12">ensures a comprehensive capture of </text>
	<text transform="matrix(1 0 0 1 533.9808 510.5779)" class="st11 st12">feature requirements, encompassing </text>
	<text transform="matrix(1 0 0 1 533.9808 524.9779)" class="st11 st12">context, triggers, and expected outcomes. </text>
	<text transform="matrix(1 0 0 1 533.9808 539.3779)" class="st11 st12">The beauty of Gherkin syntax lies in its </text>
	<text transform="matrix(1 0 0 1 533.9808 553.7779)" class="st11 st12">readability, offering clarity and precision </text>
	<text transform="matrix(1 0 0 1 533.9808 568.1779)" class="st11 st12">that is accessible to both technical and </text>
	<text transform="matrix(1 0 0 1 535.7808 582.5779)" class="st11 st12">non-technical stakeholders alike. </text>
	<path pointer-events="stroke" class="st13" d="M526.1,503.4l-110.5-50.2"/>
	<ellipse pointer-events="all" class="st14" cx="411.4" cy="451.1" rx="4.2" ry="4"/>
</g>
<g id="Implementation">
	<path pointer-events="all" class="st10" d="M14.1,427.2h237c4.5,0,8.3,8.8,8.3,19.7V539c0,10.9-3.7,19.7-8.3,19.7h-237
		c-4.5,0-8.3-8.8-8.3-19.7v-92.1C5.7,436,9.4,427.2,14.1,427.2z"/>
	<text transform="matrix(1 0 0 1 14.3121 446.8543)" class="st11 st12">As a full-stack developer, I have honed my </text>
	<text transform="matrix(1 0 0 1 13.7121 461.2543)" class="st11 st12">skills in coding with the Angular and React </text>
	<text transform="matrix(1 0 0 1 13.7121 475.6543)" class="st11 st12">frameworks and leveraging Google Firebase </text>
	<text transform="matrix(1 0 0 1 13.7121 490.0543)" class="st11 st12">and Python for robust backend solutions. My </text>
	<text transform="matrix(1 0 0 1 13.7121 504.4543)" class="st11 st12">expertise extends to a comprehensive </text>
	<text transform="matrix(1 0 0 1 13.7121 518.8543)" class="st11 st12">understanding of application interfaces. I </text>
	<text transform="matrix(1 0 0 1 13.7121 533.2543)" class="st11 st12">possess a deep and nuanced mastery of both </text>
	<text transform="matrix(1 0 0 1 14.5121 547.6543)" class="st11 st12">SQL and NoSQL databases.</text>
	<path pointer-events="stroke" class="st13" d="M261,469.9l18.7-66.2"/>
	<ellipse pointer-events="all" class="st14" cx="282.2" cy="400.5" rx="4.2" ry="4"/>
</g>
<g id="Testing">
	<path pointer-events="all" class="st10" d="M6.5,175.2h170.9c3.3,0,6,13.5,6,30.2v141c0,16.7-2.7,30.2-6,30.2H6.5
		c-3.3,0-6-13.5-6-30.2v-141C0.5,188.8,3.2,175.2,6.5,175.2z"/>
	<text transform="matrix(1 0 0 1 11.5273 186.6029)" class="st11 st12">I skillfully utilize Karma as a test </text>
	<text transform="matrix(1 0 0 1 8.9273 201.0029)" class="st11 st12">runner and Jasmine as a </text>
	<text transform="matrix(1 0 0 1 8.4273 215.4029)" class="st11 st12">behavior-driven framework to </text>
	<text transform="matrix(1 0 0 1 8.4273 229.8029)" class="st11 st12">conduct comprehensive unit </text>
	<text transform="matrix(1 0 0 1 8.4273 244.2029)" class="st11 st12">testing in frontend applications, </text>
	<text transform="matrix(1 0 0 1 8.4273 258.6029)" class="st11 st12">ensuring the delivery of robust </text>
	<text transform="matrix(1 0 0 1 8.4273 273.0029)" class="st11 st12">and reliable code. My expertise </text>
	<text transform="matrix(1 0 0 1 8.4273 287.4029)" class="st11 st12">also extends to performing </text>
	<text transform="matrix(1 0 0 1 8.4273 301.8029)" class="st11 st12">integration, functional, and </text>
	<text transform="matrix(1 0 0 1 8.4273 316.2029)" class="st11 st12">acceptance testing, </text>
	<text transform="matrix(1 0 0 1 8.4273 330.6029)" class="st11 st12">guaranteeing a thorough </text>
	<text transform="matrix(1 0 0 1 8.4273 345.0029)" class="st11 st12">validation of software from </text>
	<text transform="matrix(1 0 0 1 9.0273 359.4029)" class="st11 st12">individual units to the overall </text>
	<text transform="matrix(1 0 0 1 11.8273 373.8029)" class="st11 st12">user experience.</text>
	<path pointer-events="stroke" class="st13" d="M184.7,285.8l64.8-30"/>
	<ellipse pointer-events="all" class="st14" cx="253.6" cy="253.9" rx="4.2" ry="4"/>
</g>
<g id="Maintenance">
	<path pointer-events="all" class="st10" d="M33.4,29.9h253.7c4.9,0,8.9,6.3,8.9,14v65.4c0,7.7-4,14-8.9,14H33.4
		c-4.9,0-8.9-6.3-8.9-14V44C24.6,36.2,28.5,29.9,33.4,29.9z"/>
	<text transform="matrix(1 0 0 1 33.5722 44.9322)" class="st11 st12">I maintain software by implementing efficient  </text>
	<text transform="matrix(1 0 0 1 32.4722 59.3322)" class="st11 st12">bug tracking and resolution processes, </text>
	<text transform="matrix(1 0 0 1 32.4722 73.7322)" class="st11 st12">regularly updating and optimizing code for </text>
	<text transform="matrix(1 0 0 1 32.4722 88.1322)" class="st11 st12">performance and security, and proactively </text>
	<text transform="matrix(1 0 0 1 32.4722 102.5322)" class="st11 st12">adapting to new technology trends to ensure the </text>
	<text transform="matrix(1 0 0 1 33.8722 116.9322)" class="st11 st12">software remains relevant and functional.</text>
	<path pointer-events="stroke" class="st13" d="M296.4,76.7l62.8,85.7"/>
	<ellipse pointer-events="all" class="st14" cx="363.3" cy="166.3" rx="4.2" ry="4"/>
</g>
<text transform="matrix(1 0 0 1 343.8238 270.7509)" class="st11 st15">Software </text>
<text transform="matrix(1 0 0 1 319.6238 299.5509)" class="st11 st15">Development </text>
<text transform="matrix(1 0 0 1 341.0238 328.3509)" class="st11 st15">Life Cycle </text>
<text transform="matrix(1 0 0 1 350.9238 357.1509)" class="st11 st15">and Me</text>
</svg>
